<?xml version="1.0" standalone="no"?>
<!DOCTYPE svg PUBLIC "-//W3C//DTD SVG 20010904//EN"
 "http://www.w3.org/TR/2001/REC-SVG-20010904/DTD/svg10.dtd">
<svg version="1.0" xmlns="http://www.w3.org/2000/svg"
 width="96.000000pt" height="96.000000pt" viewBox="0 0 96.000000 96.000000"
 preserveAspectRatio="xMidYMid meet">
<metadata>
Created by potrace 1.11, written by Peter Selinger 2001-2013
</metadata>
<g transform="translate(0.000000,96.000000) scale(0.100000,-0.100000)"
fill="#000000" stroke="none">
<path d="M127 793 c-41 -11 -47 -49 -47 -310 0 -136 3 -258 6 -271 14 -49 38
-52 393 -52 181 0 341 4 354 9 44 17 48 48 45 327 -3 242 -4 262 -22 280 -18
18 -38 19 -365 21 -190 0 -354 -1 -364 -4z m267 -85 c-6 -10 -4 -10 7 -2 8 6
64 12 127 13 90 1 112 -1 106 -11 -6 -10 -4 -10 7 -2 21 16 123 19 113 3 -5
-8 -3 -9 7 -3 30 19 39 13 39 -27 0 -28 -4 -38 -12 -33 -8 5 -8 3 -2 -7 14
-22 14 -221 1 -238 -9 -12 -9 -13 1 -7 10 6 12 -9 10 -73 l-2 -81 -39 0 c-28
0 -36 3 -31 12 6 10 4 10 -7 2 -20 -17 -402 -17 -392 -1 5 9 3 9 -8 1 -21 -16
-123 -19 -113 -3 5 8 3 9 -7 3 -34 -21 -40 -14 -38 39 1 29 7 58 13 66 8 11 8
13 0 8 -8 -5 -11 44 -11 171 l0 177 119 3 c94 2 118 0 112 -10z"/>
<path d="M345 700 c-3 -6 1 -7 9 -4 18 7 21 14 7 14 -6 0 -13 -4 -16 -10z"/>
<path d="M546 698 c3 -5 10 -6 15 -3 13 9 11 12 -6 12 -8 0 -12 -4 -9 -9z"/>
<path d="M585 700 c-3 -6 1 -7 9 -4 18 7 21 14 7 14 -6 0 -13 -4 -16 -10z"/>
<path d="M175 689 c-4 -6 -5 -12 -2 -15 2 -3 7 2 10 11 7 17 1 20 -8 4z"/>
<path d="M385 680 c-3 -6 1 -7 9 -4 18 7 21 14 7 14 -6 0 -13 -4 -16 -10z"/>
<path d="M625 680 c-3 -6 1 -7 9 -4 18 7 21 14 7 14 -6 0 -13 -4 -16 -10z"/>
<path d="M776 673 c-6 -14 -5 -15 5 -6 7 7 10 15 7 18 -3 3 -9 -2 -12 -12z"/>
<path d="M413 645 c0 -8 4 -12 9 -9 5 3 6 10 3 15 -9 13 -12 11 -12 -6z"/>
<path d="M475 650 c-4 -6 -10 -8 -15 -5 -5 3 -12 0 -16 -6 -5 -8 -3 -9 7 -4
12 8 12 6 0 -9 -8 -9 -20 -15 -28 -12 -8 3 -12 2 -8 -3 8 -14 -93 -114 -106
-105 -8 4 -9 3 -5 -5 4 -6 0 -18 -8 -27 -9 -8 -16 -12 -17 -7 0 4 -4 -2 -9
-14 -5 -13 -14 -23 -20 -23 -6 0 -8 5 -4 12 4 6 3 9 -2 5 -7 -4 -10 -84 -5
-129 1 -4 11 -5 23 -3 12 3 28 -1 37 -8 12 -9 13 -9 7 1 -6 11 18 18 47 13 4
0 7 6 7 15 0 10 5 14 16 10 8 -3 12 -2 9 4 -10 16 50 71 71 64 15 -5 16 -4 4
5 -13 9 -12 13 8 31 12 12 27 18 34 14 6 -4 8 -3 4 4 -3 5 12 29 34 52 47 49
49 61 15 86 -14 10 -25 24 -25 30 0 21 -44 32 -55 14z"/>
<path d="M650 656 c0 -2 8 -10 18 -17 15 -13 16 -12 3 4 -13 16 -21 21 -21 13z"/>
<path d="M300 626 c0 -2 8 -10 18 -17 15 -13 16 -12 3 4 -13 16 -21 21 -21 13z"/>
<path d="M235 599 c-3 -4 2 -6 10 -5 21 3 28 13 10 13 -9 0 -18 -4 -20 -8z"/>
<path d="M313 575 c0 -8 4 -12 9 -9 5 3 6 10 3 15 -9 13 -12 11 -12 -6z"/>
<path d="M346 578 c3 -4 9 -8 15 -8 5 0 9 4 9 8 0 5 -7 9 -15 9 -8 0 -12 -4
-9 -9z"/>
<path d="M185 540 c-3 -6 1 -7 9 -4 18 7 21 14 7 14 -6 0 -13 -4 -16 -10z"/>
<path d="M315 540 c-3 -5 -1 -10 4 -10 6 0 11 5 11 10 0 6 -2 10 -4 10 -3 0
-8 -4 -11 -10z"/>
<path d="M225 519 c-3 -4 2 -6 10 -5 21 3 28 13 10 13 -9 0 -18 -4 -20 -8z"/>
<path d="M555 489 c-4 -6 -5 -12 -2 -15 2 -3 7 2 10 11 7 17 1 20 -8 4z"/>
<path d="M716 487 c3 -10 9 -15 12 -12 3 3 0 11 -7 18 -10 9 -11 8 -5 -6z"/>
<path d="M755 489 c-4 -6 -5 -12 -2 -15 2 -3 7 2 10 11 7 17 1 20 -8 4z"/>
<path d="M680 420 c-9 -6 -10 -10 -3 -10 6 0 15 5 18 10 8 12 4 12 -15 0z"/>
<path d="M716 422 c-3 -5 1 -9 9 -9 8 0 12 4 9 9 -3 4 -7 8 -9 8 -2 0 -6 -4
-9 -8z"/>
<path d="M487 393 c4 -9 -2 -16 -16 -20 -11 -3 -21 -12 -21 -19 0 -8 -4 -14
-10 -14 -5 0 -10 -6 -10 -12 0 -10 32 -13 128 -12 81 1 132 -3 141 -10 11 -8
13 -8 7 2 -4 6 -2 12 3 12 6 0 11 18 11 40 l0 40 -102 1 c-57 0 -111 2 -120 4
-11 2 -15 -2 -11 -12z"/>
<path d="M756 393 c-6 -14 -5 -15 5 -6 7 7 10 15 7 18 -3 3 -9 -2 -12 -12z"/>
<path d="M776 353 c-6 -14 -5 -15 5 -6 7 7 10 15 7 18 -3 3 -9 -2 -12 -12z"/>
<path d="M200 340 c-9 -6 -10 -10 -3 -10 6 0 15 5 18 10 8 12 4 12 -15 0z"/>
<path d="M175 289 c-4 -6 -5 -12 -2 -15 2 -3 7 2 10 11 7 17 1 20 -8 4z"/>
<path d="M320 280 c-9 -6 -10 -10 -3 -10 6 0 15 5 18 10 8 12 4 12 -15 0z"/>
<path d="M480 280 c-9 -6 -10 -10 -3 -10 6 0 15 5 18 10 8 12 4 12 -15 0z"/>
<path d="M720 280 c-9 -6 -10 -10 -3 -10 6 0 15 5 18 10 8 12 4 12 -15 0z"/>
<path d="M360 260 c-9 -6 -10 -10 -3 -10 6 0 15 5 18 10 8 12 4 12 -15 0z"/>
<path d="M396 262 c-3 -5 1 -9 9 -9 8 0 12 4 9 9 -3 4 -7 8 -9 8 -2 0 -6 -4
-9 -8z"/>
<path d="M600 260 c-9 -6 -10 -10 -3 -10 6 0 15 5 18 10 8 12 4 12 -15 0z"/>
<path d="M760 260 c-9 -6 -10 -10 -3 -10 6 0 15 5 18 10 8 12 4 12 -15 0z"/>
</g>
</svg>
